<?xml version="1.0" standalone="no"?><!DOCTYPE svg PUBLIC "-//W3C//DTD SVG 1.1//EN" "http://www.w3.org/Graphics/SVG/1.1/DTD/svg11.dtd"><svg t="1672565566975" class="icon" viewBox="0 0 1024 1024" version="1.1" xmlns="http://www.w3.org/2000/svg" p-id="14467" xmlns:xlink="http://www.w3.org/1999/xlink" width="200" height="200"><path d="M701.2 444.52c-1.31-0.71-2-0.52-1.33-0.12a22.13 22.13 0 0 0 2.58 0.77zM703.29 445.33c-0.27 0-0.56-0.1-0.84-0.16h0.08zM662.35 448.86a1.17 1.17 0 0 1-0.2 0.35l0.09-0.06c0.04-0.1 0.08-0.15 0.11-0.29z" p-id="14468"></path><path d="M657.51 453.26c-0.44 0.42-0.86 0.86-1.29 1.29l-7.48 7.45-33 33-114.69 114.72-138 138L252.2 858.56l-16.29 16.29L959 877.26V698.33l-108.9-108.9-106.17-106.17L717.68 457c-1.25-1.26-2.5-2.53-3.77-3.77-0.91-0.89-1.44-1.41-2.37-2.27-0.67-0.61-4.77-3.3-1-1s-0.58-0.35-1.17-0.75q-2-1.32-4-2.5c-0.92-0.53-1.87-1-2.81-1.49a8 8 0 0 1-2.66-0.81 55.33 55.33 0 0 0-5.35-1.88c-1.19-0.29-2.38-0.52-3.58-0.76-2.51-0.08-5-0.25-7.5-0.17-1.19 0-2.68 0.38-3.93 0.36a68.2 68.2 0 0 0-7 1.81l-1.53 0.54c-0.73 0.36-1.74 0.72-2.12 0.91a74.15 74.15 0 0 0-6.6 3.94 4.08 4.08 0 0 1-2.09 1.8c-0.62 0.48-1.2 0.9-1.44 1.13-0.52 0.44-0.85 0.77-1.25 1.17z" p-id="14469"></path><path d="M662.15 449.21l-1.37 0.89c-1.33 0.87-1.2 1.07-0.63 0.85a12.82 12.82 0 0 0 2-1.74z" p-id="14470"></path><path d="M178.21 857.4c1.84-1.87 3.71-3.71 5.57-5.57l79.89-79.89L396.21 639.4l133.55-133.55 82.79-82.79c14.68-14.68 30.76-27.51 51.73-32.13a94.85 94.85 0 0 1 84.83 22.47c2 1.78 3.81 3.7 5.69 5.57l72.55 72.56 129.37 129.36 2.28 2.28V208.75a62.22 62.22 0 0 0-62.27-62H127.37C93 146.74 65 174.58 65 208.75v603.79a62.19 62.19 0 0 0 62.37 62h17.47l19.92 0.07a95.64 95.64 0 0 1 13.45-17.21z m102.08-573.29a65.44 65.44 0 1 1-65.44 65.44 65.44 65.44 0 0 1 65.44-65.44z" p-id="14471"></path></svg>