<?xml version="1.0" standalone="no"?><!DOCTYPE svg PUBLIC "-//W3C//DTD SVG 1.1//EN" "http://www.w3.org/Graphics/SVG/1.1/DTD/svg11.dtd"><svg t="1672566504933" class="icon" viewBox="0 0 1024 1024" version="1.1" xmlns="http://www.w3.org/2000/svg" p-id="6066" xmlns:xlink="http://www.w3.org/1999/xlink" width="200" height="200"><path d="M512.03094 955.6H136.63094c-65.4 0-121-45.2-133.8-109.4-1.8-8.6-2.6-17.6-2.6-26.4-0.2-159-0.4-318.2 0-477.2 0.2-60 30-101.8 83.4-127.2 16.6-8 34.6-10.4 53-10.4h113.6c4.4 0 6.4-1 8-5.4 8-22 16.2-44 24.6-65.8 14.6-38 54.4-65.4 95.2-65.4h268.8c40 0 80.6 28.2 94.6 65.6 8.2 21.8 16.4 43.4 24.2 65.4 1.6 4.6 3.8 5.6 8.4 5.6 40-0.2 80-0.6 120 0.2 41.4 1 74.6 19.8 100.6 51.4 20.6 25.2 29.4 54.6 29.4 87-0.2 158.8 0 317.8 0 476.6 0 66.4-50.2 124.4-115.8 133.8-6.6 1-13.4 1.4-20.2 1.4-125.4 0.2-250.6 0.2-376 0.2z m0-136.4c130.4 1.8 243.6-110.8 239.2-247.4-4-122.4-109-228.4-234-231-134.4-2.8-242.4 109.8-244.6 234.4-2.4 133.6 108.2 245.8 239.4 244z" fill="" p-id="6067"></path><path d="M512.23094 426.8c83.8-1 154 70.6 153.6 154.2-0.4 83-70.6 154.2-155.4 153.2-83.8-1.2-152.2-69.8-152-154 0.4-85.4 68.8-153.6 153.8-153.4z" fill="" p-id="6068"></path></svg>