<?xml version="1.0" standalone="no"?><!DOCTYPE svg PUBLIC "-//W3C//DTD SVG 1.1//EN" "http://www.w3.org/Graphics/SVG/1.1/DTD/svg11.dtd"><svg t="1672741279989" class="icon" viewBox="0 0 1024 1024" version="1.1" xmlns="http://www.w3.org/2000/svg" p-id="3180" xmlns:xlink="http://www.w3.org/1999/xlink" width="200" height="200"><path d="M512 96C229.2 96 0 282.3 0 512c0 92.1 36.8 177.1 99.1 246 4 4.5 5.3 10.9 3.1 16.5-5.7 14.7-12 29.2-19 43.3-12.9 26.3-28.2 51.7-45.3 75.5-6.2 8.6-7.7 19.7-4.1 29.6 3.6 10 11.9 17.5 22.2 20.1 9.4 2.4 25.2 5.4 44.8 5.4 26 0 58.7-5.4 91.5-25 21.4-12.8 37.5-28.6 49.3-44 4.5-5.9 12.5-7.9 19.3-4.8 74.2 34 159.8 53.4 251 53.4 282.8 0 512-186.3 512-416S794.8 96 512 96z m192 464c-30.9 0-56-25.1-56-56s25.1-56 56-56 56 25.1 56 56-25.1 56-56 56z m-440-56c0-30.9 25.1-56 56-56s56 25.1 56 56-25.1 56-56 56-56-25.1-56-56z m192 0c0-30.9 25.1-56 56-56s56 25.1 56 56-25.1 56-56 56-56-25.1-56-56z" p-id="3181"></path></svg>